<?xml version="1.0" encoding="utf-8"?>
<!-- Generator: Adobe Illustrator 13.0.2, SVG Export Plug-In . SVG Version: 6.00 Build 14948)  -->
<!DOCTYPE svg PUBLIC "-//W3C//DTD SVG 1.1//EN" "http://www.w3.org/Graphics/SVG/1.1/DTD/svg11.dtd">
<svg version="1.1" id="Layer_1" xmlns="http://www.w3.org/2000/svg" xmlns:xlink="http://www.w3.org/1999/xlink" x="0px" y="0px"
	 width="229.115px" height="83.012px" viewBox="0 0 229.115 83.012" enable-background="new 0 0 229.115 83.012"
	 xml:space="preserve">
<g>
	<linearGradient id="SVGID_1_" gradientUnits="userSpaceOnUse" x1="137.3193" y1="2.3047" x2="137.3193" y2="58.2485">
		<stop  offset="0" style="stop-color:#FFB100"/>
		<stop  offset="0.1489" style="stop-color:#FFA300"/>
		<stop  offset="0.4164" style="stop-color:#FF9100"/>
		<stop  offset="0.6951" style="stop-color:#FF8600"/>
		<stop  offset="1" style="stop-color:#FF8200"/>
	</linearGradient>
	<polygon fill="url(#SVGID_1_)" points="110.654,2.305 126.023,2.305 148,33.965 148,2.306 164.445,2.306 164.445,58.249 
		147.541,58.249 126.33,27.358 126.33,58.247 110.193,58.247 	"/>
	<linearGradient id="SVGID_2_" gradientUnits="userSpaceOnUse" x1="92.9805" y1="2.3047" x2="92.9805" y2="58.2485">
		<stop  offset="0" style="stop-color:#FFB100"/>
		<stop  offset="0.1489" style="stop-color:#FFA300"/>
		<stop  offset="0.4164" style="stop-color:#FF9100"/>
		<stop  offset="0.6951" style="stop-color:#FF8600"/>
		<stop  offset="1" style="stop-color:#FF8200"/>
	</linearGradient>
	<rect x="84.527" y="2.305" fill="url(#SVGID_2_)" width="16.906" height="55.944"/>
	<g>
		<linearGradient id="SVGID_3_" gradientUnits="userSpaceOnUse" x1="10.0654" y1="23.3594" x2="10.0654" y2="58.2485">
			<stop  offset="0" style="stop-color:#FFB100"/>
			<stop  offset="0.1489" style="stop-color:#FFA300"/>
			<stop  offset="0.4164" style="stop-color:#FF9100"/>
			<stop  offset="0.6951" style="stop-color:#FF8600"/>
			<stop  offset="1" style="stop-color:#FF8200"/>
		</linearGradient>
		<rect x="2.611" y="23.359" fill="url(#SVGID_3_)" width="14.908" height="34.889"/>
		<linearGradient id="SVGID_4_" gradientUnits="userSpaceOnUse" x1="9.9893" y1="0" x2="9.9893" y2="19.9805">
			<stop  offset="0" style="stop-color:#FFB100"/>
			<stop  offset="0.1489" style="stop-color:#FFA300"/>
			<stop  offset="0.4164" style="stop-color:#FF9100"/>
			<stop  offset="0.6951" style="stop-color:#FF8600"/>
			<stop  offset="1" style="stop-color:#FF8200"/>
		</linearGradient>
		<path fill="url(#SVGID_4_)" d="M9.988,0C4.471,0,0,4.474,0,9.99c0,5.518,4.471,9.99,9.988,9.99s9.99-4.473,9.99-9.99
			C19.979,4.474,15.506,0,9.988,0z M9.988,14.985c-2.758,0-4.994-2.236-4.994-4.995S7.23,4.996,9.988,4.996s4.994,2.235,4.994,4.994
			S12.746,14.985,9.988,14.985z"/>
	</g>
	<linearGradient id="SVGID_5_" gradientUnits="userSpaceOnUse" x1="52.0215" y1="2.2979" x2="52.0215" y2="58.2485">
		<stop  offset="0" style="stop-color:#FFB100"/>
		<stop  offset="0.1489" style="stop-color:#FFA300"/>
		<stop  offset="0.4164" style="stop-color:#FF9100"/>
		<stop  offset="0.6951" style="stop-color:#FF8600"/>
		<stop  offset="1" style="stop-color:#FF8200"/>
	</linearGradient>
	<path fill="url(#SVGID_5_)" d="M72.693,34.581c-3.125-2.459-8.299-3.535-8.299-3.535s12.859-2.613,13.063-14.6
		c0-14.959-16.904-14.14-16.904-14.14H43.492V2.305H26.586v55.944h16.906v-22.91c1.863-0.012,4.926-0.023,6.303,0.012
		c2.049,0.051,5.84,0.768,8.76,3.842s3.381,7.529,3.381,7.529c0.357,1.691,0.768,11.527,0.768,11.527h14.293
		c0,0-0.154-14.754-0.768-17.059C75.613,38.885,75.818,37.04,72.693,34.581z M52.867,25.052c-0.92,0.046-6.592,0.023-9.375,0.009
		V12.59c3.873-0.01,9.213-0.019,10.297,0.014c1.742,0.052,6.455,1.406,6.455,6.301C60.244,23.822,54.916,24.949,52.867,25.052z"/>
	<linearGradient id="SVGID_6_" gradientUnits="userSpaceOnUse" x1="199.3867" y1="0.6636" x2="199.3867" y2="59.5815">
		<stop  offset="0" style="stop-color:#FFB100"/>
		<stop  offset="0.1489" style="stop-color:#FFA300"/>
		<stop  offset="0.4164" style="stop-color:#FF9100"/>
		<stop  offset="0.6951" style="stop-color:#FF8600"/>
		<stop  offset="1" style="stop-color:#FF8200"/>
	</linearGradient>
	<path fill="url(#SVGID_6_)" d="M228.379,36.528v-9.939H201.33v11.168h11.939c-0.039,1.266-0.098,2.951-0.156,3.895
		c-0.102,1.639-2.049,5.738-12.09,5.84s-13.832-8.709-13.73-17.109c0.104-8.403,3.484-17.522,12.807-17.624
		c9.324,0.205,10.656,6.762,10.656,6.762l16.6-2.869c0,0-0.387-4.437-5.533-9.938c-5.943-6.353-17.93-6.046-20.697-6.046
		c-13.525,0-30.736,5.432-30.736,29.202c0.102,22.336,12.705,29.611,31.146,29.713c13.115,0.072,19.672-3.893,23.566-8.813
		C228.688,44.725,228.379,36.528,228.379,36.528z"/>
</g>
<g>
	<path fill="#4682B4" d="M140.361,58.053h16.635v5.246h-5.67v19.441h-5.332V63.299h-5.633V58.053z"/>
	<path fill="#4682B4" d="M159,72.874c0-2.914,0.965-5.318,2.896-7.217c1.932-1.896,4.221-2.846,6.869-2.846
		c2.93,0,5.352,0.953,7.268,2.861s2.875,4.318,2.875,7.232c0,2.893-0.949,5.295-2.844,7.209c-1.896,1.912-4.283,2.867-7.162,2.867
		c-2.881,0-5.25-0.951-7.111-2.854S159,75.807,159,72.874z M168.961,66.747c-1.654-0.031-2.988,0.541-4.002,1.711
		c-1.014,1.172-1.52,2.684-1.52,4.537c0,1.752,0.516,3.203,1.549,4.355c1.033,1.15,2.338,1.727,3.914,1.727
		c1.654,0,2.99-0.568,4.01-1.705c1.018-1.137,1.527-2.635,1.527-4.498c0-1.832-0.5-3.305-1.498-4.416S170.617,66.776,168.961,66.747
		z"/>
	<path fill="#4682B4" d="M181.504,72.874c0-2.914,0.965-5.318,2.896-7.217c1.932-1.896,4.221-2.846,6.869-2.846
		c2.93,0,5.352,0.953,7.268,2.861s2.875,4.318,2.875,7.232c0,2.893-0.949,5.295-2.844,7.209c-1.896,1.912-4.283,2.867-7.162,2.867
		c-2.881,0-5.25-0.951-7.111-2.854S181.504,75.807,181.504,72.874z M191.465,66.747c-1.654-0.031-2.988,0.541-4.002,1.711
		c-1.014,1.172-1.52,2.684-1.52,4.537c0,1.752,0.516,3.203,1.549,4.355c1.033,1.15,2.338,1.727,3.914,1.727
		c1.654,0,2.99-0.568,4.01-1.705c1.018-1.137,1.527-2.635,1.527-4.498c0-1.832-0.5-3.305-1.498-4.416S193.121,66.776,191.465,66.747
		z"/>
	<path fill="#4682B4" d="M204.746,63.022h4.229v15.469h5.822v4.25h-10.051V63.022z"/>
	<path fill="#4682B4" d="M228.588,64.809l-2.648,2.898c-1.395-0.82-2.398-1.232-3.01-1.232c-0.471,0-0.877,0.178-1.219,0.533
		s-0.512,0.779-0.512,1.27c0,0.971,0.883,1.813,2.648,2.523c1.295,0.551,2.271,1.049,2.934,1.494s1.217,1.064,1.664,1.855
		c0.445,0.791,0.67,1.646,0.67,2.568c0,1.691-0.686,3.164-2.055,4.414c-1.369,1.252-2.986,1.879-4.854,1.879
		c-2.045,0-4.066-0.961-6.063-2.885l2.799-3.258c1.254,1.291,2.426,1.938,3.52,1.938c0.512,0,1.004-0.229,1.475-0.682
		c0.473-0.455,0.707-0.932,0.707-1.432c0-1.029-1.088-1.936-3.264-2.721c-1.244-0.453-2.127-0.877-2.648-1.271
		c-0.521-0.396-0.961-0.971-1.316-1.729c-0.357-0.756-0.535-1.529-0.535-2.32c0-1.752,0.572-3.174,1.715-4.264
		c1.145-1.092,2.639-1.639,4.484-1.639C225.268,62.75,227.104,63.438,228.588,64.809z"/>
</g>
<line fill="none" stroke="#4682B4" stroke-width="5" x1="2.643" y1="71.235" x2="135.686" y2="71.235"/>
</svg>
