<?xml version="1.0" encoding="utf-8"?>
<!-- Generator: Adobe Illustrator 13.0.2, SVG Export Plug-In . SVG Version: 6.00 Build 14948)  -->
<!DOCTYPE svg PUBLIC "-//W3C//DTD SVG 1.1//EN" "http://www.w3.org/Graphics/SVG/1.1/DTD/svg11.dtd">
<svg version="1.1" id="Layer_1" xmlns="http://www.w3.org/2000/svg" xmlns:xlink="http://www.w3.org/1999/xlink" x="0px" y="0px"
	 width="229.425px" height="83.08px" viewBox="0 0 229.425 83.08" enable-background="new 0 0 229.425 83.08" xml:space="preserve">
<g>
	<linearGradient id="SVGID_1_" gradientUnits="userSpaceOnUse" x1="137.3193" y1="2.3047" x2="137.3193" y2="58.248">
		<stop  offset="0" style="stop-color:#FFB100"/>
		<stop  offset="0.1489" style="stop-color:#FFA300"/>
		<stop  offset="0.4164" style="stop-color:#FF9100"/>
		<stop  offset="0.6951" style="stop-color:#FF8600"/>
		<stop  offset="1" style="stop-color:#FF8200"/>
	</linearGradient>
	<polygon fill="url(#SVGID_1_)" points="110.655,2.305 126.023,2.305 148.001,33.965 148.001,2.307 164.446,2.307 164.446,58.248 
		147.54,58.248 126.332,27.357 126.332,58.248 110.193,58.248 	"/>
	<linearGradient id="SVGID_2_" gradientUnits="userSpaceOnUse" x1="92.9805" y1="2.3047" x2="92.9805" y2="58.248">
		<stop  offset="0" style="stop-color:#FFB100"/>
		<stop  offset="0.1489" style="stop-color:#FFA300"/>
		<stop  offset="0.4164" style="stop-color:#FF9100"/>
		<stop  offset="0.6951" style="stop-color:#FF8600"/>
		<stop  offset="1" style="stop-color:#FF8200"/>
	</linearGradient>
	<rect x="84.527" y="2.305" fill="url(#SVGID_2_)" width="16.906" height="55.943"/>
	<g>
		<linearGradient id="SVGID_3_" gradientUnits="userSpaceOnUse" x1="10.0659" y1="23.3594" x2="10.0659" y2="58.248">
			<stop  offset="0" style="stop-color:#FFB100"/>
			<stop  offset="0.1489" style="stop-color:#FFA300"/>
			<stop  offset="0.4164" style="stop-color:#FF9100"/>
			<stop  offset="0.6951" style="stop-color:#FF8600"/>
			<stop  offset="1" style="stop-color:#FF8200"/>
		</linearGradient>
		<rect x="2.612" y="23.359" fill="url(#SVGID_3_)" width="14.907" height="34.889"/>
		<linearGradient id="SVGID_4_" gradientUnits="userSpaceOnUse" x1="9.9893" y1="0" x2="9.9893" y2="19.9805">
			<stop  offset="0" style="stop-color:#FFB100"/>
			<stop  offset="0.1489" style="stop-color:#FFA300"/>
			<stop  offset="0.4164" style="stop-color:#FF9100"/>
			<stop  offset="0.6951" style="stop-color:#FF8600"/>
			<stop  offset="1" style="stop-color:#FF8200"/>
		</linearGradient>
		<path fill="url(#SVGID_4_)" d="M9.989,0C4.473,0,0,4.475,0,9.992c0,5.516,4.473,9.988,9.989,9.988
			c5.518,0,9.989-4.473,9.989-9.988C19.979,4.475,15.507,0,9.989,0z M9.989,14.986c-2.759,0-4.995-2.236-4.995-4.994
			c0-2.76,2.236-4.996,4.995-4.996c2.758,0,4.995,2.236,4.995,4.996C14.984,12.75,12.747,14.986,9.989,14.986z"/>
	</g>
	<linearGradient id="SVGID_5_" gradientUnits="userSpaceOnUse" x1="52.0225" y1="2.2988" x2="52.0225" y2="58.248">
		<stop  offset="0" style="stop-color:#FFB100"/>
		<stop  offset="0.1489" style="stop-color:#FFA300"/>
		<stop  offset="0.4164" style="stop-color:#FF9100"/>
		<stop  offset="0.6951" style="stop-color:#FF8600"/>
		<stop  offset="1" style="stop-color:#FF8200"/>
	</linearGradient>
	<path fill="url(#SVGID_5_)" d="M72.694,34.58c-3.126-2.459-8.3-3.535-8.3-3.535s12.859-2.611,13.063-14.6
		c0-14.959-16.905-14.139-16.905-14.139h-17.06V2.305H26.587v55.943h16.906V35.34c1.862-0.012,4.924-0.025,6.301,0.01
		c2.05,0.051,5.841,0.77,8.761,3.842c2.92,3.074,3.381,7.531,3.381,7.531c0.358,1.691,0.769,11.525,0.769,11.525h14.293
		c0,0-0.153-14.752-0.769-17.059C75.614,38.885,75.819,37.041,72.694,34.58z M52.868,25.053c-0.921,0.045-6.593,0.023-9.375,0.008
		V12.59c3.872-0.01,9.212-0.018,10.297,0.014c1.742,0.053,6.455,1.408,6.455,6.301C60.245,23.822,54.918,24.951,52.868,25.053z"/>
	<linearGradient id="SVGID_6_" gradientUnits="userSpaceOnUse" x1="199.3877" y1="0.6655" x2="199.3877" y2="59.583">
		<stop  offset="0" style="stop-color:#FFB100"/>
		<stop  offset="0.1489" style="stop-color:#FFA300"/>
		<stop  offset="0.4164" style="stop-color:#FF9100"/>
		<stop  offset="0.6951" style="stop-color:#FF8600"/>
		<stop  offset="1" style="stop-color:#FF8200"/>
	</linearGradient>
	<path fill="url(#SVGID_6_)" d="M228.38,36.527V26.59h-27.049v11.168h11.939c-0.039,1.264-0.098,2.951-0.156,3.893
		c-0.104,1.639-2.051,5.738-12.092,5.84c-10.041,0.104-13.83-8.709-13.729-17.109c0.104-8.402,3.484-17.521,12.807-17.623
		c9.324,0.205,10.656,6.762,10.656,6.762l16.6-2.867c0,0-0.387-4.438-5.533-9.939c-5.943-6.354-17.93-6.045-20.697-6.045
		c-13.525,0-30.738,5.43-30.738,29.199c0.104,22.338,12.705,29.613,31.148,29.715c13.113,0.072,19.672-3.895,23.564-8.813
		C228.687,44.725,228.38,36.527,228.38,36.527z"/>
</g>
<line fill="none" stroke="#79A734" stroke-width="5" x1="1.914" y1="71.582" x2="88.821" y2="71.582"/>
<g>
	<path fill="#79A734" d="M109.447,60.293l-3.315,3.629c-1.746-1.027-3.002-1.543-3.768-1.543c-0.591,0-1.099,0.223-1.526,0.668
		c-0.427,0.445-0.64,0.975-0.64,1.588c0,1.217,1.104,2.27,3.315,3.158c1.619,0.691,2.844,1.314,3.673,1.873
		c0.829,0.557,1.522,1.332,2.081,2.32c0.559,0.992,0.839,2.063,0.839,3.217c0,2.117-0.857,3.961-2.571,5.527s-3.739,2.35-6.075,2.35
		c-2.562,0-5.093-1.203-7.592-3.609l3.504-4.08c1.57,1.617,3.039,2.426,4.408,2.426c0.641,0,1.256-0.285,1.846-0.854
		c0.591-0.568,0.886-1.166,0.886-1.791c0-1.287-1.363-2.424-4.088-3.406c-1.558-0.566-2.662-1.098-3.315-1.592
		c-0.653-0.496-1.202-1.217-1.648-2.164c-0.445-0.945-0.668-1.914-0.668-2.904c0-2.193,0.716-3.973,2.147-5.34
		c1.432-1.365,3.303-2.049,5.613-2.049C105.29,57.717,107.588,58.576,109.447,60.293z"/>
	<path fill="#79A734" d="M119.899,63.021h3.3l8.049,19.721h-4.286l-1.581-3.875h-7.582l-1.549,3.875h-4.263L119.899,63.021z
		 M121.55,69.48l-2.323,5.813h4.695L121.55,69.48z"/>
	<path fill="#79A734" d="M146.995,63.021h4.168v19.721h-4.148l-9.033-12.766v12.766h-4.258V63.021h4.209l9.063,12.676V63.021z"/>
	<path fill="#79A734" d="M154.737,63.021h6.74c2.879,0,5.197,0.906,6.953,2.719c1.754,1.813,2.633,4.201,2.633,7.164
		c0,2.975-0.906,5.357-2.717,7.148c-1.811,1.793-4.221,2.689-7.23,2.689h-6.379V63.021z M159.024,66.746v12.182h1.686
		c1.746,0,3.18-0.477,4.305-1.428c1.123-0.951,1.686-2.537,1.686-4.762c0-1.291-0.271-2.434-0.813-3.432
		c-0.543-0.996-1.328-1.672-2.355-2.027c-1.029-0.355-2.01-0.533-2.941-0.533H159.024z"/>
	<path fill="#79A734" d="M174.036,63.021h5.756c2.404,0,4.047,0.5,4.93,1.502c0.881,1,1.322,2.17,1.322,3.51
		c0,0.852-0.16,1.568-0.482,2.154c-0.32,0.586-0.838,1.178-1.549,1.777c1.363,0.473,2.33,1.166,2.896,2.082
		c0.566,0.918,0.85,1.896,0.85,2.939c0,1.813-0.621,3.227-1.863,4.238s-2.992,1.518-5.246,1.518h-6.613V63.021z M178.294,66.326
		v4.326h0.975c0.719,0,1.322-0.229,1.813-0.686c0.49-0.459,0.734-1.023,0.734-1.697c0-0.541-0.24-1.002-0.719-1.379
		c-0.48-0.377-1.08-0.564-1.799-0.564H178.294z M178.294,74v5.438h1.525c2.334,0,3.5-0.854,3.5-2.561
		c0-0.924-0.283-1.633-0.852-2.131C181.899,74.25,181.087,74,180.03,74H178.294z"/>
	<path fill="#79A734" d="M189.452,72.875c0-2.914,0.965-5.32,2.896-7.217c1.93-1.898,4.221-2.846,6.869-2.846
		c2.928,0,5.352,0.953,7.268,2.859c1.916,1.908,2.873,4.318,2.873,7.232c0,2.895-0.947,5.297-2.844,7.209
		c-1.895,1.912-4.283,2.869-7.162,2.869s-5.25-0.951-7.109-2.854C190.382,78.227,189.452,75.809,189.452,72.875z M199.413,66.746
		c-1.656-0.029-2.99,0.541-4.002,1.713c-1.014,1.172-1.521,2.684-1.521,4.535c0,1.752,0.518,3.205,1.551,4.355
		c1.033,1.152,2.338,1.727,3.912,1.727c1.656,0,2.992-0.566,4.01-1.703s1.527-2.637,1.527-4.498c0-1.832-0.498-3.305-1.496-4.416
		C202.394,67.348,201.067,66.777,199.413,66.746z"/>
	<path fill="#79A734" d="M211.806,63.021h4.525l3.969,6.031l4.105-6.031h4.402l-6.252,9.373l6.869,10.348h-4.398l-4.699-7.01
		l-4.676,7.01h-4.494l6.941-10.332L211.806,63.021z"/>
</g>
</svg>
