<?xml version="1.0" encoding="UTF-8" standalone="no"?>
<!-- Generator: Adobe Illustrator 13.0.2, SVG Export Plug-In . SVG Version: 6.00 Build 14948)  -->
<svg
   xmlns:dc="http://purl.org/dc/elements/1.1/"
   xmlns:cc="http://creativecommons.org/ns#"
   xmlns:rdf="http://www.w3.org/1999/02/22-rdf-syntax-ns#"
   xmlns:svg="http://www.w3.org/2000/svg"
   xmlns="http://www.w3.org/2000/svg"
   xmlns:sodipodi="http://sodipodi.sourceforge.net/DTD/sodipodi-0.dtd"
   xmlns:inkscape="http://www.inkscape.org/namespaces/inkscape"
   version="1.1"
   id="Layer_1"
   x="0px"
   y="0px"
   width="229.083px"
   height="83.08px"
   viewBox="0 0 229.083 83.08"
   enable-background="new 0 0 229.083 83.08"
   xml:space="preserve"
   sodipodi:version="0.32"
   inkscape:version="0.46"
   sodipodi:docname="iRING User Group logo copy.svg"
   inkscape:output_extension="org.inkscape.output.svg.inkscape"
   inkscape:export-filename="C:\Users\rpdecarl\Desktop\iRING Logos\iRING User Group logo.png"
   inkscape:export-xdpi="286.01001"
   inkscape:export-ydpi="286.01001"><metadata
   id="metadata110"><rdf:RDF><cc:Work
       rdf:about=""><dc:format>image/svg+xml</dc:format><dc:type
         rdf:resource="http://purl.org/dc/dcmitype/StillImage" /></cc:Work></rdf:RDF></metadata><defs
   id="defs108"><inkscape:perspective
     sodipodi:type="inkscape:persp3d"
     inkscape:vp_x="0 : 41.540001 : 1"
     inkscape:vp_y="0 : 1000 : 0"
     inkscape:vp_z="229.08299 : 41.540001 : 1"
     inkscape:persp3d-origin="114.5415 : 27.693334 : 1"
     id="perspective112" /></defs><sodipodi:namedview
   inkscape:window-height="1000"
   inkscape:window-width="1680"
   inkscape:pageshadow="2"
   inkscape:pageopacity="0.0"
   guidetolerance="10.0"
   gridtolerance="10.0"
   objecttolerance="10.0"
   borderopacity="1.0"
   bordercolor="#666666"
   pagecolor="#ffffff"
   id="base"
   showgrid="false"
   inkscape:zoom="2.3746852"
   inkscape:cx="114.5415"
   inkscape:cy="41.540001"
   inkscape:window-x="-8"
   inkscape:window-y="-8"
   inkscape:current-layer="Layer_1" />
<g
   id="g3">
	<path
   fill="#716558"
   d="M57.656,58.053h5.256V73.15c0,1.404,0.389,2.533,1.168,3.385c0.778,0.854,1.802,1.279,3.07,1.279   c1.457,0,2.587-0.43,3.392-1.289c0.804-0.857,1.205-2.07,1.205-3.637V58.053h5.237v15.982c0,1.404-0.364,2.861-1.093,4.371   c-0.729,1.512-1.85,2.668-3.362,3.469c-1.514,0.803-3.206,1.205-5.077,1.205c-3.391,0-5.871-0.943-7.441-2.83   s-2.354-3.871-2.354-5.951V58.053z"
   id="path5" />
	<path
   fill="#716558"
   d="M92.346,64.809l-2.647,2.898c-1.395-0.82-2.398-1.232-3.01-1.232c-0.472,0-0.878,0.178-1.219,0.533   c-0.342,0.355-0.512,0.779-0.512,1.27c0,0.971,0.883,1.813,2.648,2.523c1.294,0.551,2.271,1.049,2.934,1.494   s1.217,1.064,1.663,1.855s0.67,1.646,0.67,2.568c0,1.691-0.685,3.164-2.055,4.414c-1.369,1.252-2.986,1.879-4.853,1.879   c-2.046,0-4.067-0.961-6.063-2.885l2.799-3.258c1.254,1.291,2.427,1.938,3.521,1.938c0.512,0,1.003-0.229,1.475-0.682   c0.472-0.455,0.707-0.932,0.707-1.432c0-1.029-1.088-1.936-3.265-2.721c-1.244-0.453-2.127-0.877-2.648-1.271   c-0.521-0.396-0.961-0.971-1.316-1.729c-0.356-0.756-0.534-1.529-0.534-2.32c0-1.752,0.571-3.174,1.715-4.264   c1.144-1.092,2.639-1.639,4.484-1.639C89.025,62.75,90.861,63.438,92.346,64.809z"
   id="path7" />
	<path
   fill="#716558"
   d="M95.187,63.021h11.12v3.904h-6.861v3.98h6.861v3.844h-6.861v4.086h6.861v3.904h-11.12V63.021z"
   id="path9" />
	<path
   fill="#716558"
   d="M109.103,63.021h6.508c1.979,0,3.543,0.52,4.693,1.561c1.148,1.041,1.725,2.447,1.725,4.219   c0,1.01-0.264,2.061-0.791,3.152c-0.529,1.09-1.5,1.945-2.918,2.566l5.529,8.221h-4.893l-5.114-7.629h-0.481v7.629h-4.259V63.021z    M113.392,66.535v5.137h0.921c2.224,0,3.337-0.906,3.337-2.719c0-0.74-0.289-1.328-0.869-1.764   c-0.578-0.436-1.381-0.654-2.408-0.654H113.392z"
   id="path11" />
	<path
   fill="#716558"
   d="M154.093,63.412l-3.541,3.309c-0.742-1.279-1.658-2.234-2.752-2.867c-1.092-0.633-2.234-0.949-3.428-0.949   c-1.934,0-3.615,0.732-5.039,2.199c-1.426,1.467-2.139,3.197-2.139,5.189c0,2.119,0.713,3.914,2.139,5.387   c1.424,1.473,3.143,2.209,5.152,2.209c1.092,0,2.145-0.275,3.154-0.826c1.012-0.551,1.824-1.586,2.439-3.104h-5.857v-4.813h11.416   v3.195c0,1.643-0.566,3.408-1.695,5.293c-1.131,1.889-2.619,3.266-4.465,4.137c-1.846,0.873-3.711,1.309-5.596,1.309   c-3.416,0-6.299-1.236-8.646-3.705c-2.35-2.469-3.523-5.521-3.523-9.156c0-3.447,1.209-6.395,3.627-8.838   c2.418-2.445,5.328-3.666,8.732-3.666C148.416,57.715,151.757,59.613,154.093,63.412z"
   id="path13" />
	<path
   fill="#716558"
   d="M158.099,63.021h6.508c1.979,0,3.543,0.52,4.693,1.561c1.148,1.041,1.725,2.447,1.725,4.219   c0,1.01-0.264,2.061-0.791,3.152c-0.529,1.09-1.5,1.945-2.918,2.566l5.529,8.221h-4.893l-5.113-7.629h-0.482v7.629h-4.258V63.021z    M162.388,66.535v5.137h0.92c2.225,0,3.338-0.906,3.338-2.719c0-0.74-0.289-1.328-0.869-1.764   c-0.578-0.436-1.381-0.654-2.408-0.654H162.388z"
   id="path15" />
	<path
   fill="#716558"
   d="M174.693,72.873c0-2.914,0.965-5.318,2.896-7.217c1.932-1.896,4.221-2.846,6.869-2.846   c2.93,0,5.352,0.953,7.268,2.861s2.875,4.318,2.875,7.232c0,2.893-0.949,5.295-2.844,7.209c-1.896,1.912-4.283,2.867-7.162,2.867   c-2.881,0-5.25-0.951-7.111-2.854S174.693,75.807,174.693,72.873z M184.654,66.746c-1.654-0.031-2.988,0.541-4.002,1.711   c-1.014,1.172-1.52,2.684-1.52,4.537c0,1.752,0.516,3.203,1.549,4.355c1.033,1.15,2.338,1.727,3.914,1.727   c1.654,0,2.99-0.568,4.01-1.705c1.018-1.137,1.527-2.635,1.527-4.498c0-1.832-0.5-3.305-1.498-4.416S186.31,66.775,184.654,66.746z   "
   id="path17" />
	<path
   fill="#716558"
   d="M197.382,63.021h4.197v12.061c0,1.121,0.313,2.021,0.934,2.703c0.621,0.68,1.439,1.021,2.453,1.021   c1.164,0,2.066-0.344,2.709-1.029c0.641-0.686,0.963-1.654,0.963-2.906v-11.85h4.182v12.766c0,1.121-0.291,2.285-0.871,3.492   c-0.582,1.207-1.479,2.131-2.688,2.771s-2.561,0.961-4.055,0.961c-2.709,0-4.689-0.754-5.943-2.262   c-1.254-1.506-1.881-3.09-1.881-4.752V63.021z"
   id="path19" />
	<path
   fill="#716558"
   d="M216.263,63.021h6.756c1.816,0,3.281,0.527,4.395,1.584s1.67,2.445,1.67,4.168   c0,1.131-0.273,2.205-0.82,3.221c-0.547,1.018-1.371,1.775-2.475,2.275c-1.104,0.502-2.047,0.762-2.828,0.781l-2.469,0.061v7.629   h-4.229V63.021z M220.431,66.566v5.045h1.656c0.711,0,1.32-0.256,1.828-0.766c0.506-0.51,0.76-1.117,0.76-1.816   c0-0.801-0.287-1.422-0.857-1.863c-0.572-0.439-1.385-0.66-2.438-0.66L220.431,66.566z"
   id="path21" />
</g>
<g
   id="g23">
	<linearGradient
   id="SVGID_1_"
   gradientUnits="userSpaceOnUse"
   x1="137.3208"
   y1="2.3047"
   x2="137.3208"
   y2="58.248">
		<stop
   offset="0"
   style="stop-color:#FFB100"
   id="stop26" />
		<stop
   offset="0.1489"
   style="stop-color:#FFA300"
   id="stop28" />
		<stop
   offset="0.4164"
   style="stop-color:#FF9100"
   id="stop30" />
		<stop
   offset="0.6951"
   style="stop-color:#FF8600"
   id="stop32" />
		<stop
   offset="1"
   style="stop-color:#FF8200"
   id="stop34" />
	</linearGradient>
	<polygon
   fill="url(#SVGID_1_)"
   points="110.655,2.305 126.025,2.305 148.001,33.965 148.001,2.307 164.447,2.307 164.447,58.248    147.541,58.248 126.332,27.357 126.332,58.248 110.194,58.248  "
   id="polygon36" />
	<linearGradient
   id="SVGID_2_"
   gradientUnits="userSpaceOnUse"
   x1="92.9814"
   y1="2.3047"
   x2="92.9814"
   y2="58.248">
		<stop
   offset="0"
   style="stop-color:#FFB100"
   id="stop39" />
		<stop
   offset="0.1489"
   style="stop-color:#FFA300"
   id="stop41" />
		<stop
   offset="0.4164"
   style="stop-color:#FF9100"
   id="stop43" />
		<stop
   offset="0.6951"
   style="stop-color:#FF8600"
   id="stop45" />
		<stop
   offset="1"
   style="stop-color:#FF8200"
   id="stop47" />
	</linearGradient>
	<rect
   x="84.528"
   y="2.305"
   fill="url(#SVGID_2_)"
   width="16.906"
   height="55.943"
   id="rect49" />
	<g
   id="g51">
		<linearGradient
   id="SVGID_3_"
   gradientUnits="userSpaceOnUse"
   x1="10.0669"
   y1="23.3594"
   x2="10.0669"
   y2="58.248">
			<stop
   offset="0"
   style="stop-color:#FFB100"
   id="stop54" />
			<stop
   offset="0.1489"
   style="stop-color:#FFA300"
   id="stop56" />
			<stop
   offset="0.4164"
   style="stop-color:#FF9100"
   id="stop58" />
			<stop
   offset="0.6951"
   style="stop-color:#FF8600"
   id="stop60" />
			<stop
   offset="1"
   style="stop-color:#FF8200"
   id="stop62" />
		</linearGradient>
		<rect
   x="2.613"
   y="23.359"
   fill="url(#SVGID_3_)"
   width="14.907"
   height="34.889"
   id="rect64" />
		<linearGradient
   id="SVGID_4_"
   gradientUnits="userSpaceOnUse"
   x1="9.9897"
   y1="0"
   x2="9.9897"
   y2="19.9805">
			<stop
   offset="0"
   style="stop-color:#FFB100"
   id="stop67" />
			<stop
   offset="0.1489"
   style="stop-color:#FFA300"
   id="stop69" />
			<stop
   offset="0.4164"
   style="stop-color:#FF9100"
   id="stop71" />
			<stop
   offset="0.6951"
   style="stop-color:#FF8600"
   id="stop73" />
			<stop
   offset="1"
   style="stop-color:#FF8200"
   id="stop75" />
		</linearGradient>
		<path
   fill="url(#SVGID_4_)"
   d="M9.99,0C4.473,0,0,4.473,0,9.99s4.473,9.99,9.99,9.99s9.989-4.473,9.989-9.99S15.508,0,9.99,0z     M9.99,14.986c-2.759,0-4.995-2.236-4.995-4.996c0-2.758,2.236-4.994,4.995-4.994c2.758,0,4.994,2.236,4.994,4.994    C14.984,12.75,12.748,14.986,9.99,14.986z"
   id="path77" />
	</g>
	<linearGradient
   id="SVGID_5_"
   gradientUnits="userSpaceOnUse"
   x1="52.0234"
   y1="2.2969"
   x2="52.0234"
   y2="58.248">
		<stop
   offset="0"
   style="stop-color:#FFB100"
   id="stop80" />
		<stop
   offset="0.1489"
   style="stop-color:#FFA300"
   id="stop82" />
		<stop
   offset="0.4164"
   style="stop-color:#FF9100"
   id="stop84" />
		<stop
   offset="0.6951"
   style="stop-color:#FF8600"
   id="stop86" />
		<stop
   offset="1"
   style="stop-color:#FF8200"
   id="stop88" />
	</linearGradient>
	<path
   fill="url(#SVGID_5_)"
   d="M72.695,34.58c-3.126-2.459-8.3-3.535-8.3-3.535s12.858-2.611,13.063-14.6   c0-14.959-16.905-14.141-16.905-14.141h-17.06l0,0H26.588v55.943h16.906v-22.91c1.862-0.012,4.924-0.023,6.301,0.012   c2.05,0.051,5.841,0.768,8.761,3.842c2.92,3.072,3.381,7.531,3.381,7.531c0.358,1.689,0.769,11.525,0.769,11.525h14.293   c0,0-0.153-14.752-0.769-17.059C75.615,38.883,75.82,37.039,72.695,34.58z M52.868,25.053c-0.92,0.045-6.592,0.021-9.374,0.008   V12.59c3.872-0.012,9.212-0.018,10.297,0.014c1.742,0.051,6.455,1.408,6.455,6.301C60.246,23.822,54.918,24.949,52.868,25.053z"
   id="path90" />
	<linearGradient
   id="SVGID_6_"
   gradientUnits="userSpaceOnUse"
   x1="199.3882"
   y1="0.6655"
   x2="199.3882"
   y2="59.583">
		<stop
   offset="0"
   style="stop-color:#FFB100"
   id="stop93" />
		<stop
   offset="0.1489"
   style="stop-color:#FFA300"
   id="stop95" />
		<stop
   offset="0.4164"
   style="stop-color:#FF9100"
   id="stop97" />
		<stop
   offset="0.6951"
   style="stop-color:#FF8600"
   id="stop99" />
		<stop
   offset="1"
   style="stop-color:#FF8200"
   id="stop101" />
	</linearGradient>
	<path
   fill="url(#SVGID_6_)"
   d="M228.38,36.527V26.59h-27.049v11.166h11.939c-0.039,1.266-0.098,2.951-0.156,3.895   c-0.104,1.639-2.049,5.736-12.09,5.84s-13.832-8.709-13.73-17.111c0.104-8.4,3.484-17.52,12.809-17.623   c9.322,0.205,10.654,6.764,10.654,6.764l16.6-2.869c0,0-0.385-4.436-5.533-9.938c-5.943-6.354-17.93-6.045-20.697-6.045   c-13.523,0-30.736,5.43-30.736,29.199c0.102,22.336,12.703,29.611,31.146,29.715c13.115,0.072,19.672-3.895,23.564-8.814   C228.689,44.723,228.38,36.527,228.38,36.527z"
   id="path103" />
</g>
<line
   fill="none"
   stroke="#716558"
   stroke-width="5"
   x1="2.988"
   y1="70.865"
   x2="52.343"
   y2="70.865"
   id="line105" />
</svg>