<?xml version="1.0" encoding="utf-8"?>
<!-- Generator: Adobe Illustrator 13.0.2, SVG Export Plug-In . SVG Version: 6.00 Build 14948)  -->
<!DOCTYPE svg PUBLIC "-//W3C//DTD SVG 1.1//EN" "http://www.w3.org/Graphics/SVG/1.1/DTD/svg11.dtd">
<svg version="1.1" id="Layer_1" xmlns="http://www.w3.org/2000/svg" xmlns:xlink="http://www.w3.org/1999/xlink" x="0px" y="0px"
	 width="245.634px" height="80.046px" viewBox="0 0 245.634 80.046" enable-background="new 0 0 245.634 80.046"
	 xml:space="preserve">
<g>
	<path fill="#2E3191" d="M3.864,66.812h1.364v10.151H3.864V66.812z"/>
	<path fill="#2E3191" d="M10.687,68.12c-0.445-0.239-0.844-0.358-1.198-0.358s-0.657,0.127-0.908,0.382
		c-0.251,0.255-0.377,0.563-0.377,0.925c0,0.254,0.075,0.526,0.224,0.814c0.15,0.291,0.487,0.754,1.012,1.39
		c0.525,0.637,0.926,1.188,1.203,1.657c0.278,0.467,0.417,1.004,0.417,1.609c0,0.756-0.226,1.369-0.678,1.839
		c-0.452,0.471-1.043,0.705-1.773,0.705c-0.402,0-0.894-0.119-1.476-0.358v-1.219c0.016,0.006,0.032,0.014,0.047,0.023
		c0.08,0.059,0.246,0.147,0.5,0.268c0.253,0.119,0.502,0.179,0.746,0.179c0.396,0,0.723-0.133,0.979-0.397
		c0.257-0.267,0.385-0.605,0.385-1.021c0-0.287-0.065-0.552-0.196-0.797c-0.131-0.244-0.367-0.577-0.711-0.997l-0.911-1.126
		c-0.354-0.437-0.615-0.834-0.784-1.196c-0.169-0.361-0.253-0.793-0.253-1.292c0-0.739,0.214-1.339,0.642-1.802
		s0.984-0.693,1.666-0.693c0.476,0,0.957,0.119,1.444,0.358V68.12z"/>
	<path fill="#2E3191" d="M12.558,71.86c0-2.202,0.215-3.628,0.646-4.274c0.431-0.648,1.141-0.973,2.13-0.973
		c1.131,0,1.884,0.363,2.257,1.087c0.373,0.726,0.559,2.03,0.559,3.914c0,1.687-0.083,2.858-0.25,3.511
		c-0.167,0.652-0.455,1.133-0.865,1.441c-0.41,0.308-0.966,0.461-1.67,0.461c-0.725,0-1.279-0.142-1.665-0.426
		c-0.387-0.283-0.673-0.744-0.861-1.381C12.652,74.583,12.558,73.463,12.558,71.86z M16.723,71.94c0-1.927-0.113-3.117-0.338-3.57
		c-0.225-0.454-0.563-0.681-1.014-0.681c-0.53,0-0.894,0.272-1.09,0.816c-0.196,0.543-0.294,1.461-0.294,2.75v0.557
		c0,1.438,0.08,2.488,0.238,3.148c0.16,0.661,0.541,0.991,1.146,0.991c0.372,0,0.689-0.186,0.955-0.558
		c0.265-0.371,0.398-1.398,0.398-3.08V71.94z"/>
	<path fill="#2E3191" d="M25.686,76.963h-1.317v-9.075H23.48v-1.092h2.206V76.963z"/>
	<path fill="#2E3191" d="M33.103,68.055h-2.294l-0.325,2.303c1.73,0.159,2.596,1.181,2.596,3.063c0,1.057-0.28,1.931-0.841,2.623
		c-0.561,0.691-1.264,1.038-2.11,1.038c-0.497,0-1.044-0.167-1.642-0.501l0.39-1.195c0.042,0.016,0.109,0.051,0.199,0.104
		c0.339,0.18,0.652,0.271,0.938,0.271c0.514,0,0.919-0.199,1.216-0.598c0.297-0.396,0.446-0.946,0.446-1.646
		c0-0.641-0.153-1.133-0.458-1.475c-0.305-0.342-0.744-0.514-1.316-0.514c-0.202,0-0.496,0.043-0.883,0.129l0.738-4.861h3.347
		V68.055z"/>
	<path fill="#2E3191" d="M37.308,72.98c-0.375,0.133-0.672,0.199-0.889,0.199c-0.54,0-0.976-0.217-1.309-0.65
		c-0.333-0.432-0.5-1.223-0.5-2.369c0-0.894,0.063-1.564,0.19-2.017c0.127-0.451,0.364-0.81,0.71-1.075
		c0.347-0.266,0.805-0.398,1.376-0.398c0.777,0,1.343,0.242,1.697,0.729s0.531,1.438,0.531,2.856c0,0.956-0.096,1.782-0.287,2.479
		c-0.193,0.696-0.525,1.507-0.998,2.435c-0.473,0.926-0.768,1.524-0.884,1.796h-1.488l0.246-0.501
		C36.604,74.597,37.139,73.437,37.308,72.98z M37.711,69.912v-0.207c0-1.221-0.284-1.833-0.853-1.833h-0.032
		c-0.287,0-0.492,0.128-0.613,0.384c-0.123,0.255-0.184,0.666-0.184,1.234c0,0.902,0.048,1.536,0.144,1.9
		c0.095,0.364,0.324,0.546,0.685,0.546c0.409,0,0.654-0.156,0.733-0.471C37.671,71.152,37.711,70.634,37.711,69.912z"/>
	<path fill="#2E3191" d="M40.527,70.08c-0.016-1.43,0.176-2.355,0.575-2.777s0.993-0.633,1.781-0.633c1.433,0,2.15,0.754,2.15,2.262
		c0,0.537-0.095,1.123-0.285,1.758c-0.191,0.635-0.524,1.443-1,2.426l-1.269,2.605h2.259v1.243h-4.418l1.769-3.507
		c0.037-0.041,0.086-0.135,0.146-0.277c0.061-0.145,0.104-0.242,0.131-0.295c0.455-0.914,0.778-1.654,0.972-2.221
		c0.193-0.564,0.291-1.097,0.291-1.596c0-0.378-0.075-0.67-0.223-0.881c-0.149-0.21-0.354-0.315-0.614-0.315
		c-0.409,0-0.664,0.19-0.765,0.571c-0.101,0.379-0.157,0.925-0.167,1.637H40.527z"/>
	<path fill="#2E3191" d="M48.307,70.783c0.301-0.145,0.564-0.217,0.792-0.217c0.591,0,1.058,0.212,1.401,0.639
		c0.343,0.424,0.514,1.252,0.514,2.48c0,1.266-0.19,2.148-0.571,2.648c-0.381,0.5-0.976,0.749-1.785,0.749
		c-0.762,0-1.316-0.26-1.662-0.781c-0.347-0.521-0.52-1.347-0.52-2.479c0-0.725,0.039-1.332,0.115-1.824
		c0.077-0.491,0.209-0.999,0.397-1.523c0.188-0.523,0.436-1.106,0.745-1.75l0.942-1.928h1.521l-1.226,2.479L48.307,70.783z
		 M47.928,73.835c0,0.75,0.058,1.282,0.174,1.593c0.116,0.313,0.338,0.468,0.666,0.468c0.545,0,0.817-0.556,0.817-1.669
		l-0.016-0.128v-0.167l0.016-0.344v-0.159c0-0.676-0.081-1.112-0.242-1.31c-0.161-0.196-0.347-0.296-0.559-0.296
		c-0.333,0-0.562,0.121-0.687,0.363c-0.124,0.242-0.186,0.656-0.186,1.242l0.016,0.145V73.835z"/>
	<path fill="#2E3191" d="M60.112,76.963h-1.416l-1.583-4.765h-0.119v4.765H55.63V66.812h1.887c1.539,0,2.309,0.866,2.309,2.598
		c0,0.787-0.113,1.379-0.341,1.777c-0.228,0.397-0.598,0.698-1.11,0.9L60.112,76.963z M56.995,71.267
		c0.529-0.012,0.911-0.138,1.146-0.379c0.235-0.241,0.354-0.682,0.354-1.318c0-0.611-0.107-1.047-0.321-1.308
		c-0.214-0.26-0.581-0.391-1.099-0.391h-0.08V71.267z"/>
	<path fill="#2E3191" d="M65.704,73.712h-2.919c0,0.755,0.052,1.324,0.155,1.709C63.043,75.807,63.288,76,63.674,76
		c0.296,0,0.497-0.111,0.603-0.335c0.105-0.224,0.161-0.573,0.166-1.052h1.182c-0.037,1.631-0.725,2.446-2.063,2.446
		c-1.438,0-2.157-1.142-2.157-3.426c0-2.491,0.745-3.737,2.236-3.737c0.566,0,1.051,0.216,1.456,0.646
		c0.404,0.431,0.606,1.32,0.606,2.669V73.712z M64.396,72.701c0-0.689-0.056-1.186-0.167-1.486c-0.111-0.299-0.313-0.45-0.603-0.45
		c-0.344,0-0.57,0.159-0.678,0.474c-0.108,0.316-0.163,0.805-0.163,1.463H64.396z"/>
	<path fill="#2E3191" d="M71.606,76.963h-1.301v-0.845h-0.039c-0.332,0.627-0.762,0.94-1.29,0.94c-0.448,0-0.844-0.211-1.186-0.634
		c-0.343-0.422-0.514-1.369-0.514-2.84c0-1.307,0.128-2.248,0.387-2.824c0.258-0.576,0.702-0.865,1.329-0.865
		c0.295,0,0.534,0.068,0.716,0.207s0.368,0.358,0.558,0.661h0.039V70h1.301V76.963z M69.48,75.919c0.331,0,0.55-0.199,0.66-0.598
		s0.165-1.074,0.165-2.031c0-0.84-0.05-1.431-0.149-1.773c-0.099-0.342-0.309-0.514-0.627-0.514c-0.32,0-0.541,0.16-0.665,0.479
		c-0.123,0.318-0.185,0.895-0.185,1.729c0,0.983,0.049,1.68,0.146,2.092C68.921,75.714,69.14,75.919,69.48,75.919z"/>
	<path fill="#2E3191" d="M74.667,76.963h-1.301V66.455h1.301V76.963z"/>
	<path fill="#2E3191" d="M78.848,71.028h-0.833v5.936h-1.301v-5.936h-0.833V70h0.833v-1.896h1.301V70h0.833V71.028z"/>
	<path fill="#2E3191" d="M80.077,67.872c0-0.19,0.07-0.358,0.21-0.501c0.14-0.145,0.308-0.216,0.503-0.216
		c0.196,0,0.364,0.071,0.504,0.216c0.14,0.143,0.21,0.311,0.21,0.501c0,0.197-0.07,0.366-0.21,0.507s-0.308,0.211-0.504,0.211
		c-0.201,0-0.37-0.07-0.507-0.211S80.077,68.069,80.077,67.872z M80.141,70h1.285v6.964h-1.285V70z"/>
	<path fill="#2E3191" d="M90.342,76.963h-1.301v-5.075c0-0.674-0.259-1.012-0.777-1.012c-0.561,0-0.841,0.404-0.841,1.211v4.876
		h-1.285v-5.171c0-0.26-0.073-0.479-0.219-0.653c-0.145-0.175-0.329-0.263-0.551-0.263c-0.571,0-0.856,0.369-0.856,1.107v4.979
		H83.21V70h1.317v0.631c0.413-0.5,0.894-0.75,1.444-0.75c0.619,0,1.068,0.289,1.348,0.868c0.433-0.568,0.954-0.853,1.563-0.853
		c0.973,0,1.459,0.561,1.459,1.682V76.963z"/>
	<path fill="#2E3191" d="M96.362,73.712h-2.919c0,0.755,0.052,1.324,0.155,1.709C93.701,75.807,93.945,76,94.332,76
		c0.296,0,0.497-0.111,0.604-0.335c0.105-0.224,0.161-0.573,0.166-1.052h1.182c-0.037,1.631-0.725,2.446-2.063,2.446
		c-1.438,0-2.158-1.142-2.158-3.426c0-2.491,0.746-3.737,2.237-3.737c0.566,0,1.051,0.216,1.456,0.646
		c0.404,0.431,0.606,1.32,0.606,2.669V73.712z M95.053,72.701c0-0.689-0.055-1.186-0.166-1.486c-0.111-0.299-0.313-0.45-0.603-0.45
		c-0.344,0-0.57,0.159-0.678,0.474c-0.109,0.316-0.163,0.805-0.163,1.463H95.053z"/>
	<path fill="#2E3191" d="M101.344,66.812h1.364v10.151h-1.364V66.812z"/>
	<path fill="#2E3191" d="M106.024,69.976v0.669h0.032c0.333-0.511,0.783-0.765,1.348-0.765c1.005,0,1.508,0.549,1.508,1.648v5.435
		h-1.285v-5.06c0-0.685-0.27-1.027-0.809-1.027c-0.249,0-0.445,0.092-0.591,0.273c-0.145,0.184-0.218,0.435-0.218,0.754v5.06h-1.301
		v-6.987H106.024z"/>
	<path fill="#2E3191" d="M113.131,71.028h-0.833v5.936h-1.301v-5.936h-0.833V70h0.833v-1.896h1.301V70h0.833V71.028z"/>
	<path fill="#2E3191" d="M118.628,73.712h-2.919c0,0.755,0.052,1.324,0.155,1.709c0.103,0.386,0.347,0.578,0.733,0.578
		c0.296,0,0.497-0.111,0.603-0.335c0.105-0.224,0.161-0.573,0.167-1.052h1.182c-0.037,1.631-0.725,2.446-2.063,2.446
		c-1.438,0-2.157-1.142-2.157-3.426c0-2.491,0.746-3.737,2.237-3.737c0.565,0,1.051,0.216,1.456,0.646
		c0.404,0.431,0.606,1.32,0.606,2.669V73.712z M117.319,72.701c0-0.689-0.056-1.186-0.166-1.486c-0.111-0.299-0.313-0.45-0.604-0.45
		c-0.344,0-0.569,0.159-0.678,0.474c-0.109,0.316-0.163,0.805-0.163,1.463H117.319z"/>
	<path fill="#2E3191" d="M123.269,71.028c-0.598,0.015-1.023,0.13-1.277,0.343c-0.254,0.212-0.38,0.685-0.38,1.418v4.175h-1.317V70
		h1.317v1.028h0.032c0.38-0.755,0.894-1.132,1.538-1.132l0.088,0.016V71.028z"/>
	<path fill="#2E3191" d="M126.822,69.88c0.661,0,1.192,0.252,1.594,0.757c0.402,0.505,0.604,1.481,0.604,2.933
		c0,1.359-0.21,2.281-0.631,2.764c-0.42,0.484-0.938,0.726-1.551,0.726c-0.767,0-1.335-0.289-1.705-0.868s-0.556-1.469-0.556-2.67
		c0-1.471,0.212-2.445,0.636-2.924c0.422-0.479,0.948-0.717,1.578-0.717H126.822z M127.639,73.896c0-1.186-0.055-1.971-0.166-2.359
		c-0.111-0.387-0.333-0.58-0.666-0.58c-0.317,0-0.534,0.15-0.65,0.453s-0.174,0.816-0.174,1.539c0,1.406,0.064,2.268,0.193,2.58
		c0.13,0.313,0.346,0.471,0.646,0.471c0.322,0,0.539-0.158,0.65-0.475C127.584,75.209,127.639,74.666,127.639,73.896z"/>
	<path fill="#2E3191" d="M132.025,70.764c0.212-0.303,0.417-0.522,0.615-0.661c0.199-0.139,0.433-0.207,0.702-0.207
		c0.619,0,1.058,0.277,1.316,0.829c0.26,0.554,0.39,1.454,0.39,2.704c0,1.41-0.137,2.371-0.409,2.885
		c-0.272,0.512-0.7,0.769-1.281,0.769c-0.254,0-0.468-0.056-0.642-0.171c-0.175-0.114-0.395-0.35-0.659-0.705h-0.032v3.84h-1.301V70
		h1.27v0.765H132.025z M132.803,75.959c0.313,0,0.535-0.183,0.667-0.547s0.198-0.956,0.198-1.774c0-0.953-0.061-1.631-0.182-2.031
		c-0.123-0.402-0.35-0.604-0.684-0.604c-0.307,0-0.515,0.167-0.626,0.5c-0.11,0.332-0.167,0.896-0.167,1.694
		c0,0.99,0.044,1.698,0.131,2.124C132.229,75.748,132.449,75.959,132.803,75.959z"/>
	<path fill="#2E3191" d="M140.83,73.712h-2.918c0,0.755,0.051,1.324,0.154,1.709C138.17,75.807,138.414,76,138.8,76
		c0.296,0,0.497-0.111,0.603-0.335s0.162-0.573,0.167-1.052h1.182c-0.036,1.631-0.725,2.446-2.062,2.446
		c-1.439,0-2.158-1.142-2.158-3.426c0-2.491,0.746-3.737,2.236-3.737c0.566,0,1.051,0.216,1.456,0.646
		c0.404,0.431,0.606,1.32,0.606,2.669V73.712z M139.521,72.701c0-0.689-0.055-1.186-0.166-1.486c-0.111-0.299-0.313-0.45-0.604-0.45
		c-0.344,0-0.569,0.159-0.678,0.474c-0.108,0.316-0.162,0.805-0.162,1.463H139.521z"/>
	<path fill="#2E3191" d="M145.472,71.028c-0.599,0.015-1.024,0.13-1.278,0.343c-0.253,0.212-0.381,0.685-0.381,1.418v4.175h-1.316
		V70h1.316v1.028h0.032c0.381-0.755,0.894-1.132,1.538-1.132l0.089,0.016V71.028z"/>
	<path fill="#2E3191" d="M151.134,76.963h-1.301v-0.845h-0.039c-0.332,0.627-0.763,0.94-1.289,0.94
		c-0.449,0-0.844-0.211-1.188-0.634c-0.343-0.422-0.514-1.369-0.514-2.84c0-1.307,0.129-2.248,0.387-2.824
		c0.26-0.576,0.701-0.865,1.33-0.865c0.295,0,0.533,0.068,0.717,0.207c0.182,0.139,0.366,0.358,0.557,0.661h0.039V70h1.301V76.963z
		 M149.009,75.919c0.33,0,0.549-0.199,0.66-0.598c0.109-0.398,0.164-1.074,0.164-2.031c0-0.84-0.049-1.431-0.149-1.773
		c-0.099-0.342-0.309-0.514-0.628-0.514s-0.541,0.16-0.664,0.479s-0.184,0.895-0.184,1.729c0,0.983,0.047,1.68,0.145,2.092
		S148.668,75.919,149.009,75.919z"/>
	<path fill="#2E3191" d="M152.88,66.455h1.301v4.469h0.031c0.244-0.695,0.693-1.043,1.35-1.043c0.486,0,0.887,0.229,1.201,0.686
		c0.314,0.456,0.472,1.338,0.472,2.645c0,1.594-0.141,2.631-0.421,3.111s-0.713,0.722-1.3,0.722c-0.561,0-1-0.349-1.316-1.044
		h-0.033v0.964h-1.284V66.455z M155.854,73.728c0-0.988-0.056-1.691-0.17-2.111s-0.345-0.629-0.693-0.629
		c-0.297,0-0.508,0.17-0.636,0.51c-0.127,0.34-0.19,0.885-0.19,1.633c0,1.016,0.061,1.736,0.179,2.164
		c0.119,0.428,0.345,0.642,0.679,0.642c0.301,0,0.516-0.175,0.642-0.522C155.79,75.066,155.854,74.504,155.854,73.728z"/>
	<path fill="#2E3191" d="M158.766,67.872c0-0.19,0.07-0.358,0.21-0.501c0.14-0.145,0.309-0.216,0.503-0.216
		c0.196,0,0.364,0.071,0.505,0.216c0.14,0.143,0.209,0.311,0.209,0.501c0,0.197-0.069,0.366-0.209,0.507
		c-0.141,0.141-0.309,0.211-0.505,0.211c-0.199,0-0.369-0.07-0.507-0.211S158.766,68.069,158.766,67.872z M158.829,70h1.285v6.964
		h-1.285V70z"/>
	<path fill="#2E3191" d="M163.184,76.963h-1.301V66.455h1.301V76.963z"/>
	<path fill="#2E3191" d="M164.873,67.872c0-0.19,0.07-0.358,0.211-0.501c0.14-0.145,0.307-0.216,0.503-0.216
		c0.195,0,0.363,0.071,0.504,0.216c0.14,0.143,0.211,0.311,0.211,0.501c0,0.197-0.071,0.366-0.211,0.507
		c-0.141,0.141-0.309,0.211-0.504,0.211c-0.201,0-0.37-0.07-0.508-0.211C164.942,68.238,164.873,68.069,164.873,67.872z M164.937,70
		h1.285v6.964h-1.285V70z"/>
	<path fill="#2E3191" d="M170.418,71.028h-0.833v5.936h-1.302v-5.936h-0.832V70h0.832v-1.896h1.302V70h0.833V71.028z"/>
	<path fill="#2E3191" d="M176.327,70l-3.236,10.047h-1.134l1.134-3.703L171.211,70h1.3l1.139,4.792l0.034,0.001l1.41-4.793H176.327z
		"/>
	<path fill="#2E3191" d="M185.474,76.963h-1.071l-2.578-6.967L181.792,70v6.964h-1.221V66.812h1.087l2.585,6.967l0.032,0.006v-6.973
		h1.198V76.963z"/>
	<path fill="#2E3191" d="M191.58,73.712h-2.918c0,0.755,0.051,1.324,0.154,1.709c0.104,0.386,0.348,0.578,0.734,0.578
		c0.296,0,0.496-0.111,0.604-0.335c0.105-0.224,0.159-0.573,0.165-1.052h1.183c-0.037,1.631-0.725,2.446-2.063,2.446
		c-1.438,0-2.158-1.142-2.158-3.426c0-2.491,0.746-3.737,2.237-3.737c0.565,0,1.052,0.216,1.456,0.646
		c0.404,0.431,0.605,1.32,0.605,2.669V73.712z M190.272,72.701c0-0.689-0.056-1.186-0.167-1.486c-0.111-0.299-0.313-0.45-0.603-0.45
		c-0.344,0-0.57,0.159-0.678,0.474c-0.109,0.316-0.163,0.805-0.163,1.463H190.272z"/>
	<path fill="#2E3191" d="M195.737,71.028h-0.833v5.936h-1.3v-5.936h-0.834V70h0.834v-1.896h1.3V70h0.833V71.028z"/>
	<path fill="#2E3191" d="M203.821,70l-1.714,6.964h-0.915l-0.854-4.263h-0.031l-0.863,4.263h-0.857L196.872,70h1.2l0.972,4.646
		h0.033L200.006,70h0.665l0.965,4.661h0.033L202.595,70H203.821z"/>
	<path fill="#2E3191" d="M207.374,69.88c0.661,0,1.192,0.252,1.595,0.757c0.401,0.505,0.603,1.481,0.603,2.933
		c0,1.359-0.211,2.281-0.63,2.764c-0.422,0.484-0.938,0.726-1.552,0.726c-0.767,0-1.335-0.289-1.705-0.868s-0.556-1.469-0.556-2.67
		c0-1.471,0.211-2.445,0.635-2.924c0.423-0.479,0.949-0.717,1.578-0.717H207.374z M208.19,73.896c0-1.186-0.055-1.971-0.166-2.359
		c-0.11-0.387-0.333-0.58-0.666-0.58c-0.317,0-0.534,0.15-0.65,0.453s-0.174,0.816-0.174,1.539c0,1.406,0.063,2.268,0.194,2.58
		c0.129,0.313,0.345,0.471,0.646,0.471c0.322,0,0.54-0.158,0.65-0.475C208.136,75.209,208.19,74.666,208.19,73.896z"/>
	<path fill="#2E3191" d="M214.156,71.028c-0.598,0.015-1.023,0.13-1.277,0.343c-0.253,0.212-0.38,0.685-0.38,1.418v4.175h-1.317V70
		h1.317v1.028h0.03c0.382-0.755,0.895-1.132,1.539-1.132l0.088,0.016V71.028z"/>
	<path fill="#2E3191" d="M220.265,76.963h-1.369l-1.931-3.721h-0.032v3.721h-1.301V66.47h1.301v6.509h0.032L218.671,70h1.363
		l-1.748,3.152L220.265,76.963z"/>
	<path fill="#2E3191" d="M229.79,73.37c0,1.169-0.197,2.075-0.594,2.722c-0.396,0.645-1.098,0.968-2.103,0.968
		c-0.899,0-1.55-0.333-1.951-1.001c-0.401-0.666-0.603-1.947-0.603-3.844c0-0.223,0.023-0.816,0.071-1.779
		c0.048-0.965,0.117-1.619,0.21-1.961c0.093-0.343,0.247-0.662,0.464-0.956c0.218-0.295,0.491-0.515,0.825-0.662
		c0.333-0.146,0.724-0.218,1.175-0.218c0.634,0,1.181,0.191,1.642,0.578c0.46,0.384,0.714,0.893,0.761,1.523l-1.285,0.471
		c-0.105-0.977-0.478-1.465-1.117-1.465c-0.492,0-0.835,0.252-1.027,0.76c-0.194,0.508-0.29,1.349-0.29,2.522v0.518
		c0,0.681,0.021,1.329,0.063,1.948c0.042,0.618,0.082,1.072,0.119,1.358s0.113,0.515,0.229,0.685s0.24,0.285,0.369,0.344
		c0.13,0.059,0.281,0.086,0.456,0.086c0.328,0,0.581-0.1,0.761-0.302c0.181-0.202,0.305-0.493,0.374-0.872
		c0.068-0.38,0.103-1.027,0.103-1.939h-1.237v-1.195h2.585V73.37z"/>
	<path fill="#2E3191" d="M234.241,71.028c-0.598,0.015-1.024,0.13-1.277,0.343c-0.254,0.212-0.381,0.685-0.381,1.418v4.175h-1.317
		V70h1.317v1.028h0.032c0.38-0.755,0.893-1.132,1.538-1.132l0.088,0.016V71.028z"/>
	<path fill="#2E3191" d="M235.668,67.872c0-0.19,0.07-0.358,0.211-0.501c0.14-0.145,0.308-0.216,0.503-0.216
		c0.196,0,0.364,0.071,0.504,0.216c0.14,0.143,0.211,0.311,0.211,0.501c0,0.197-0.071,0.366-0.211,0.507s-0.308,0.211-0.504,0.211
		c-0.201,0-0.37-0.07-0.507-0.211C235.737,68.238,235.668,68.069,235.668,67.872z M235.731,70h1.285v6.964h-1.285V70z"/>
	<path fill="#2E3191" d="M241.697,66.455h1.293v10.509h-1.277v-0.933h-0.031c-0.312,0.686-0.757,1.028-1.333,1.028
		c-0.338,0-0.648-0.114-0.932-0.343c-0.284-0.229-0.48-0.547-0.591-0.955c-0.111-0.41-0.167-1.092-0.167-2.049
		c0-1.088,0.047-1.868,0.144-2.339c0.095-0.47,0.276-0.835,0.547-1.099c0.269-0.264,0.613-0.395,1.031-0.395
		c0.544,0,0.973,0.311,1.285,0.932h0.031V66.455z M241.713,73.37c0-0.859-0.054-1.47-0.162-1.829
		c-0.108-0.357-0.326-0.537-0.655-0.537c-0.327,0-0.553,0.188-0.674,0.565c-0.122,0.378-0.182,1.003-0.182,1.872
		c0,0.904,0.056,1.549,0.17,1.933c0.113,0.386,0.331,0.578,0.654,0.578c0.317,0,0.538-0.2,0.663-0.602
		C241.65,74.949,241.713,74.289,241.713,73.37z"/>
	<path fill="#2E3191" d="M2.548,78.669v-0.957h3.72v0.957H2.548z"/>
	<path fill="#2E3191" d="M54.543,78.669v-0.957h5.934v0.957H54.543z"/>
	<path fill="#2E3191" d="M100.027,78.669v-0.957h3.721v0.957H100.027z"/>
	<path fill="#2E3191" d="M179.579,78.669v-0.957h6.774v0.957H179.579z"/>
	<path fill="#2E3191" d="M223.517,78.669v-0.957h6.79v0.957H223.517z"/>
</g>
<g>
	<linearGradient id="SVGID_1_" gradientUnits="userSpaceOnUse" x1="147.6904" y1="2.4775" x2="147.6904" y2="62.647">
		<stop  offset="0" style="stop-color:#FFB100"/>
		<stop  offset="0.1489" style="stop-color:#FFA300"/>
		<stop  offset="0.4164" style="stop-color:#FF9100"/>
		<stop  offset="0.6951" style="stop-color:#FF8600"/>
		<stop  offset="1" style="stop-color:#FF8200"/>
	</linearGradient>
	<polygon fill="url(#SVGID_1_)" points="119.012,2.478 135.541,2.478 159.179,36.529 159.179,2.479 176.865,2.479 176.865,62.647 
		158.683,62.647 135.872,29.422 135.872,62.645 118.516,62.645 	"/>
	<linearGradient id="SVGID_2_" gradientUnits="userSpaceOnUse" x1="100.0029" y1="2.4775" x2="100.0029" y2="62.647">
		<stop  offset="0" style="stop-color:#FFB100"/>
		<stop  offset="0.1489" style="stop-color:#FFA300"/>
		<stop  offset="0.4164" style="stop-color:#FF9100"/>
		<stop  offset="0.6951" style="stop-color:#FF8600"/>
		<stop  offset="1" style="stop-color:#FF8200"/>
	</linearGradient>
	<rect x="90.912" y="2.478" fill="url(#SVGID_2_)" width="18.183" height="60.169"/>
	<g>
		<linearGradient id="SVGID_3_" gradientUnits="userSpaceOnUse" x1="10.8267" y1="25.1226" x2="10.8267" y2="62.647">
			<stop  offset="0" style="stop-color:#FFB100"/>
			<stop  offset="0.1489" style="stop-color:#FFA300"/>
			<stop  offset="0.4164" style="stop-color:#FF9100"/>
			<stop  offset="0.6951" style="stop-color:#FF8600"/>
			<stop  offset="1" style="stop-color:#FF8200"/>
		</linearGradient>
		<rect x="2.81" y="25.123" fill="url(#SVGID_3_)" width="16.033" height="37.524"/>
		<linearGradient id="SVGID_4_" gradientUnits="userSpaceOnUse" x1="10.7441" y1="0" x2="10.7441" y2="21.4888">
			<stop  offset="0" style="stop-color:#FFB100"/>
			<stop  offset="0.1489" style="stop-color:#FFA300"/>
			<stop  offset="0.4164" style="stop-color:#FF9100"/>
			<stop  offset="0.6951" style="stop-color:#FF8600"/>
			<stop  offset="1" style="stop-color:#FF8200"/>
		</linearGradient>
		<path fill="url(#SVGID_4_)" d="M10.744,0C4.811,0,0,4.811,0,10.745s4.811,10.744,10.744,10.744s10.744-4.81,10.744-10.744
			S16.678,0,10.744,0z M10.744,16.117c-2.967,0-5.373-2.406-5.373-5.373c0-2.966,2.406-5.372,5.373-5.372s5.372,2.406,5.372,5.372
			C16.116,13.711,13.711,16.117,10.744,16.117z"/>
	</g>
	<linearGradient id="SVGID_5_" gradientUnits="userSpaceOnUse" x1="55.9521" y1="2.4697" x2="55.9521" y2="62.647">
		<stop  offset="0" style="stop-color:#FFB100"/>
		<stop  offset="0.1489" style="stop-color:#FFA300"/>
		<stop  offset="0.4164" style="stop-color:#FF9100"/>
		<stop  offset="0.6951" style="stop-color:#FF8600"/>
		<stop  offset="1" style="stop-color:#FF8200"/>
	</linearGradient>
	<path fill="url(#SVGID_5_)" d="M78.185,37.191c-3.361-2.645-8.927-3.801-8.927-3.801s13.83-2.81,14.05-15.703
		c0-16.089-18.182-15.208-18.182-15.208H46.778V2.478H28.596v60.169h18.183V38.006c2.004-0.012,5.296-0.024,6.777,0.013
		c2.203,0.054,6.281,0.826,9.421,4.132c3.141,3.306,3.636,8.099,3.636,8.099c0.386,1.818,0.827,12.397,0.827,12.397h15.373
		c0,0-0.166-15.868-0.827-18.347C81.325,41.819,81.545,39.836,78.185,37.191z M56.861,26.943c-0.99,0.05-7.09,0.024-10.083,0.009
		V13.54c4.165-0.011,9.907-0.02,11.075,0.015c1.873,0.055,6.942,1.513,6.942,6.776C64.795,25.621,59.065,26.833,56.861,26.943z"/>
	<linearGradient id="SVGID_6_" gradientUnits="userSpaceOnUse" x1="214.4453" y1="0.7144" x2="214.4453" y2="64.0815">
		<stop  offset="0" style="stop-color:#FFB100"/>
		<stop  offset="0.1489" style="stop-color:#FFA300"/>
		<stop  offset="0.4164" style="stop-color:#FF9100"/>
		<stop  offset="0.6951" style="stop-color:#FF8600"/>
		<stop  offset="1" style="stop-color:#FF8200"/>
	</linearGradient>
	<path fill="url(#SVGID_6_)" d="M245.627,39.286v-10.69h-29.091v12.012h12.841c-0.043,1.36-0.106,3.174-0.168,4.188
		c-0.11,1.763-2.205,6.171-13.004,6.281c-10.8,0.11-14.877-9.367-14.766-18.404c0.11-9.036,3.746-18.843,13.773-18.953
		c10.028,0.221,11.461,7.273,11.461,7.273l17.852-3.085c0,0-0.414-4.772-5.95-10.689c-6.392-6.833-19.285-6.502-22.26-6.502
		c-14.546,0-33.059,5.84-33.059,31.406c0.109,24.023,13.663,31.848,33.499,31.958c14.104,0.078,21.158-4.188,25.346-9.479
		C245.958,48.101,245.627,39.286,245.627,39.286z"/>
</g>
</svg>
